<svg viewBox="0 0 330 200" xmlns="http://www.w3.org/2000/svg"><g><g><g><g><g><line x1="40" y1="178" x2="35" y2="178" style="visibility: inherit;" fill="rgb(0, 0, 0)" stroke="rgb(204, 204, 204)" stroke-width="1px"></line><line x1="40" y1="155.75000000000003" x2="35" y2="155.75000000000003" style="visibility: inherit;" fill="rgb(0, 0, 0)" stroke="rgb(204, 204, 204)" stroke-width="1px"></line><line x1="40" y1="133.5" x2="35" y2="133.5" style="visibility: inherit;" fill="rgb(0, 0, 0)" stroke="rgb(204, 204, 204)" stroke-width="1px"></line><line x1="40" y1="111.24999999999999" x2="35" y2="111.24999999999999" style="visibility: inherit;" fill="rgb(0, 0, 0)" stroke="rgb(204, 204, 204)" stroke-width="1px"></line><line x1="40" y1="89.00000000000001" x2="35" y2="89.00000000000001" style="visibility: inherit;" fill="rgb(0, 0, 0)" stroke="rgb(204, 204, 204)" stroke-width="1px"></line><line x1="40" y1="66.75" x2="35" y2="66.75" style="visibility: inherit;" fill="rgb(0, 0, 0)" stroke="rgb(204, 204, 204)" stroke-width="1px"></line><line x1="40" y1="44.50000000000003" x2="35" y2="44.50000000000003" style="visibility: inherit;" fill="rgb(0, 0, 0)" stroke="rgb(204, 204, 204)" stroke-width="1px"></line><line x1="40" y1="22.25000000000003" x2="35" y2="22.25000000000003" style="visibility: inherit;" fill="rgb(0, 0, 0)" stroke="rgb(204, 204, 204)" stroke-width="1px"></line><line x1="40" y1="0" x2="35" y2="0" style="visibility: inherit;" fill="rgb(0, 0, 0)" stroke="rgb(204, 204, 204)" stroke-width="1px"></line></g><g transform="translate(30, 0)"><text x="0" y="178" dx="0em" dy="0.3em" style="text-anchor: end; visibility: hidden; font-family: &quot;Helvetica Neue&quot;, sans-serif; font-size: 12px; font-weight: 200;" fill="rgb(50, 49, 63)" stroke="none" stroke-width="1px">1.3</text><text x="0" y="155.75000000000003" dx="0em" dy="0.3em" style="text-anchor: end; visibility: inherit; font-family: &quot;Helvetica Neue&quot;, sans-serif; font-size: 12px; font-weight: 200;" fill="rgb(50, 49, 63)" stroke="none" stroke-width="1px">1.4</text><text x="0" y="133.5" dx="0em" dy="0.3em" style="text-anchor: end; visibility: hidden; font-family: &quot;Helvetica Neue&quot;, sans-serif; font-size: 12px; font-weight: 200;" fill="rgb(50, 49, 63)" stroke="none" stroke-width="1px">1.5</text><text x="0" y="111.24999999999999" dx="0em" dy="0.3em" style="text-anchor: end; visibility: inherit; font-family: &quot;Helvetica Neue&quot;, sans-serif; font-size: 12px; font-weight: 200;" fill="rgb(50, 49, 63)" stroke="none" stroke-width="1px">1.6</text><text x="0" y="89.00000000000001" dx="0em" dy="0.3em" style="text-anchor: end; visibility: hidden; font-family: &quot;Helvetica Neue&quot;, sans-serif; font-size: 12px; font-weight: 200;" fill="rgb(50, 49, 63)" stroke="none" stroke-width="1px">1.7</text><text x="0" y="66.75" dx="0em" dy="0.3em" style="text-anchor: end; visibility: inherit; font-family: &quot;Helvetica Neue&quot;, sans-serif; font-size: 12px; font-weight: 200;" fill="rgb(50, 49, 63)" stroke="none" stroke-width="1px">1.8</text><text x="0" y="44.50000000000003" dx="0em" dy="0.3em" style="text-anchor: end; visibility: hidden; font-family: &quot;Helvetica Neue&quot;, sans-serif; font-size: 12px; font-weight: 200;" fill="rgb(50, 49, 63)" stroke="none" stroke-width="1px">1.9</text><text x="0" y="22.25000000000003" dx="0em" dy="0.3em" style="text-anchor: end; visibility: inherit; font-family: &quot;Helvetica Neue&quot;, sans-serif; font-size: 12px; font-weight: 200;" fill="rgb(50, 49, 63)" stroke="none" stroke-width="1px">2</text><text x="0" y="0" dx="0em" dy="0.3em" style="text-anchor: end; visibility: hidden; font-family: &quot;Helvetica Neue&quot;, sans-serif; font-size: 12px; font-weight: 200;" fill="rgb(50, 49, 63)" stroke="none" stroke-width="1px">2.1</text></g><line x1="40" y1="0" x2="40" y2="178" fill="rgb(0, 0, 0)" stroke="rgb(204, 204, 204)" stroke-width="1px"></line></g></g><g transform="translate(40, 0)" clip-path="url(#clip_0)"><clipPath id="clip_0"><rect width="290" height="178"></rect></clipPath><g><g><g><line x1="0" y1="0" x2="0" y2="178" fill="rgb(0, 0, 0)" stroke="rgb(60, 60, 60)" stroke-width="1px" opacity="0.25"></line><line x1="41.42857142857142" y1="0" x2="41.42857142857142" y2="178" fill="rgb(0, 0, 0)" stroke="rgb(60, 60, 60)" stroke-width="1px" opacity="0.25"></line><line x1="82.85714285714285" y1="0" x2="82.85714285714285" y2="178" fill="rgb(0, 0, 0)" stroke="rgb(60, 60, 60)" stroke-width="1px" opacity="0.25"></line><line x1="124.28571428571428" y1="0" x2="124.28571428571428" y2="178" fill="rgb(0, 0, 0)" stroke="rgb(60, 60, 60)" stroke-width="1px" opacity="0.25"></line><line x1="165.7142857142857" y1="0" x2="165.7142857142857" y2="178" fill="rgb(0, 0, 0)" stroke="rgb(60, 60, 60)" stroke-width="1px" opacity="0.25"></line><line x1="207.14285714285714" y1="0" x2="207.14285714285714" y2="178" fill="rgb(0, 0, 0)" stroke="rgb(60, 60, 60)" stroke-width="1px" opacity="0.25"></line><line x1="248.57142857142856" y1="0" x2="248.57142857142856" y2="178" fill="rgb(0, 0, 0)" stroke="rgb(60, 60, 60)" stroke-width="1px" opacity="0.25"></line><line x1="290" y1="0" x2="290" y2="178" fill="rgb(0, 0, 0)" stroke="rgb(60, 60, 60)" stroke-width="1px" opacity="0.25"></line></g><g><line x1="0" y1="178" x2="290" y2="178" fill="rgb(0, 0, 0)" stroke="rgb(60, 60, 60)" stroke-width="1px" opacity="0.25"></line><line x1="0" y1="155.75000000000003" x2="290" y2="155.75000000000003" fill="rgb(0, 0, 0)" stroke="rgb(60, 60, 60)" stroke-width="1px" opacity="0.25"></line><line x1="0" y1="133.5" x2="290" y2="133.5" fill="rgb(0, 0, 0)" stroke="rgb(60, 60, 60)" stroke-width="1px" opacity="0.25"></line><line x1="0" y1="111.24999999999999" x2="290" y2="111.24999999999999" fill="rgb(0, 0, 0)" stroke="rgb(60, 60, 60)" stroke-width="1px" opacity="0.25"></line><line x1="0" y1="89.00000000000001" x2="290" y2="89.00000000000001" fill="rgb(0, 0, 0)" stroke="rgb(60, 60, 60)" stroke-width="1px" opacity="0.25"></line><line x1="0" y1="66.75" x2="290" y2="66.75" fill="rgb(0, 0, 0)" stroke="rgb(60, 60, 60)" stroke-width="1px" opacity="0.25"></line><line x1="0" y1="44.50000000000003" x2="290" y2="44.50000000000003" fill="rgb(0, 0, 0)" stroke="rgb(60, 60, 60)" stroke-width="1px" opacity="0.25"></line><line x1="0" y1="22.25000000000003" x2="290" y2="22.25000000000003" fill="rgb(0, 0, 0)" stroke="rgb(60, 60, 60)" stroke-width="1px" opacity="0.25"></line><line x1="0" y1="0" x2="290" y2="0" fill="rgb(0, 0, 0)" stroke="rgb(60, 60, 60)" stroke-width="1px" opacity="0.25"></line></g></g></g><g><g><line x1="0" y1="467.25" x2="290" y2="467.25" fill="rgb(0, 0, 0)" stroke="rgb(153, 153, 153)" stroke-width="1.5px"></line></g></g><g><g><line x1="41.42857142857142" y1="0" x2="41.42857142857142" y2="178" fill="rgb(0, 0, 0)" stroke="rgb(153, 153, 153)" stroke-width="1.5px"></line></g></g><g><g><g><g><g><path stroke="rgb(0, 119, 187)" stroke-width="2px" d="M45.48857142857143,1.3538095951080606L49.63142857142857,36.34639772027734L53.77428571428571,63.25502470926362L57.917142857142856,88.33041672255187L62.06,134.23514821751098L66.20285714285714,128.45018851720232L70.3457142857143,159.16933120091988L74.48857142857142,142.30676912214284" style="fill: none;" fill="none"></path></g><g><path stroke="rgb(255, 112, 67)" stroke-width="2px" d="M45.48857142857143,9.438398241996794L49.63142857142857,-13.129570946097346L53.77428571428571,29.993632592716978L57.917142857142856,43.25568545872673L62.06,25.7439095342763L66.20285714285714,31.667375823528857L70.3457142857143,26.585875918036407L74.48857142857142,40.56887668939925L78.63142857142857,85.56506887461013L82.77428571428571,65.07777296390556L86.91714285714285,57.29967865413447L91.06,70.75281171799884L95.20285714285714,78.53903070292738L99.3457142857143,111.30623919141588L103.48857142857143,103.58554308034627L107.63142857142857,94.10901570837606L111.77428571428572,70.01887304364146L115.91714285714285,89.62394926765333L120.05999999999999,116.65099671515239L124.20285714285714,138.62660273165142L128.34571428571428,97.07930348618001L132.48857142857142,79.71794705487204L136.63142857142856,74.79752329345932L140.77428571428572,65.45604029400306L144.91714285714286,87.00974681266212L149.06,98.4256116710843L153.20285714285714,86.75053167857035L157.34571428571428,111.12590076840361L161.48857142857142,137.11756010673224L165.6314285714286,139.23717476390834L169.7742857142857,148.94274888903598L173.91714285714286,127.91824949826481L178.06,114.54073995275749L182.20285714285717,142.32692472629572L186.34571428571428,136.43422901330936L190.48857142857142,193.32756639808983L194.6314285714286,175.10665146334225L198.7742857142857,146.4307855007591L202.91714285714286,107.07389303245854L207.06,110.17201812799883L211.20285714285714,134.48022686843314L215.34571428571428,159.15120440361557L219.48857142857145,144.3875726516394L223.63142857142856,127.82988135857717L227.77428571428572,143.1143494195336L231.91714285714286,101.93632496020243L236.05999999999997,100.01867030029898L240.20285714285714,142.09934650733422L244.34571428571428,110.55727411987228L248.48857142857145,100.29368754427387L252.63142857142856,89.42928552741954L256.7742857142857,100.27212085795671L260.91714285714284,114.97717503593312L265.06,120.59304468564349L269.2028571428571,116.63200400311791L273.3457142857143,129.92511931681565" style="fill: none;" fill="none"></path></g></g></g></g><g opacity="0.2"><g><g><g><path stroke="rgb(0, 119, 187)" stroke-width="2px" d="M45.48857142857143,1.3538095951080606L49.63142857142857,57.34195059537889L53.77428571428571,89.0873066186905L57.917142857142856,117.81907773017883L62.06,194.16836565732956L66.20285714285714,120.44750666618347L70.3457142857143,203.09819674491882L74.48857142857142,117.72099173069" style="fill: none;" fill="none"></path></g><g><path stroke="rgb(255, 112, 67)" stroke-width="2px" d="M45.48857142857143,9.438398241996794L49.63142857142857,-26.67035245895383L53.77428571428571,71.3919079899788L57.917142857142856,58.85185962915422L62.06,2.880534887313871L66.20285714285714,39.86166214942935L70.3457142857143,19.319249749183683L74.48857142857142,60.95622605085374L78.63142857142857,151.925712287426L82.77428571428571,34.65652620792392L86.91714285714285,45.70308393239978L91.06,90.85929995775224L95.20285714285714,90.19293582439424L99.3457142857143,160.3928575515747L103.48857142857143,92.01357430219652L107.63142857142857,79.90090823173524L111.77428571428572,33.893853187561064L115.91714285714285,119.02658587694168L120.05999999999999,157.18745058774948L124.20285714285714,171.5880030989647L128.34571428571428,34.760633170604734L132.48857142857142,53.67648369073869L136.63142857142856,67.41698479652406L140.77428571428572,51.44392645359041L144.91714285714286,119.34015339612961L149.06,115.54936027526855L153.20285714285714,69.23794156312944L157.34571428571428,147.68891698122025L161.48857142857142,176.10502517223358L165.6314285714286,142.41659557819366L169.7742857142857,163.50110685825348L173.91714285714286,96.38150459527971L178.06,94.47447723150255L182.20285714285717,184.0061998963356L186.34571428571428,127.5951856970787L190.48857142857142,278.6675710082054L194.6314285714286,147.7752793431282L198.7742857142857,103.41698682308198L202.91714285714286,48.03855454921725L207.06,114.81920576095581L211.20285714285714,170.94253993034363L215.34571428571428,196.15767067670822L219.48857142857145,122.24212503433228L223.63142857142856,102.9933444261551L227.77428571428572,166.04105150699615L231.91714285714286,40.169288277626066L236.05999999999997,97.14218831062318L240.20285714285714,205.22036081552505L244.34571428571428,63.24416553974153L248.48857142857145,84.8983076810837L252.63142857142856,73.13268250226976L256.7742857142857,116.53637385368347L260.91714285714284,137.03475630283356L265.06,129.0168491601944L269.2028571428571,110.6904429793358L273.3457142857143,149.8647922873497" style="fill: none;" fill="none"></path></g></g></g></g></g></g><g transform="translate(40, 178)" clip-path="url(#clip_1)"><clipPath id="clip_1"><rect width="290" height="22"></rect></clipPath><g><g><line x1="0" y1="0" x2="0" y2="5" style="visibility: inherit;" fill="rgb(0, 0, 0)" stroke="rgb(204, 204, 204)" stroke-width="1px"></line><line x1="41.42857142857142" y1="0" x2="41.42857142857142" y2="5" style="visibility: inherit;" fill="rgb(0, 0, 0)" stroke="rgb(204, 204, 204)" stroke-width="1px"></line><line x1="82.85714285714285" y1="0" x2="82.85714285714285" y2="5" style="visibility: inherit;" fill="rgb(0, 0, 0)" stroke="rgb(204, 204, 204)" stroke-width="1px"></line><line x1="124.28571428571428" y1="0" x2="124.28571428571428" y2="5" style="visibility: inherit;" fill="rgb(0, 0, 0)" stroke="rgb(204, 204, 204)" stroke-width="1px"></line><line x1="165.7142857142857" y1="0" x2="165.7142857142857" y2="5" style="visibility: inherit;" fill="rgb(0, 0, 0)" stroke="rgb(204, 204, 204)" stroke-width="1px"></line><line x1="207.14285714285714" y1="0" x2="207.14285714285714" y2="5" style="visibility: inherit;" fill="rgb(0, 0, 0)" stroke="rgb(204, 204, 204)" stroke-width="1px"></line><line x1="248.57142857142856" y1="0" x2="248.57142857142856" y2="5" style="visibility: inherit;" fill="rgb(0, 0, 0)" stroke="rgb(204, 204, 204)" stroke-width="1px"></line><line x1="290" y1="0" x2="290" y2="5" style="visibility: inherit;" fill="rgb(0, 0, 0)" stroke="rgb(204, 204, 204)" stroke-width="1px"></line></g><g transform="translate(0, 8)"><text x="0" y="0" dx="0em" dy="0.95em" style="text-anchor: middle; visibility: hidden; font-family: &quot;Helvetica Neue&quot;, sans-serif; font-size: 12px; font-weight: 200;" fill="rgb(50, 49, 63)" stroke="none" stroke-width="1px">-500</text><text x="41.42857142857142" y="0" dx="0em" dy="0.95em" style="text-anchor: middle; visibility: inherit; font-family: &quot;Helvetica Neue&quot;, sans-serif; font-size: 12px; font-weight: 200;" fill="rgb(50, 49, 63)" stroke="none" stroke-width="1px">0</text><text x="82.85714285714285" y="0" dx="0em" dy="0.95em" style="text-anchor: middle; visibility: inherit; font-family: &quot;Helvetica Neue&quot;, sans-serif; font-size: 12px; font-weight: 200;" fill="rgb(50, 49, 63)" stroke="none" stroke-width="1px">500</text><text x="124.28571428571428" y="0" dx="0em" dy="0.95em" style="text-anchor: middle; visibility: inherit; font-family: &quot;Helvetica Neue&quot;, sans-serif; font-size: 12px; font-weight: 200;" fill="rgb(50, 49, 63)" stroke="none" stroke-width="1px">1k</text><text x="165.7142857142857" y="0" dx="0em" dy="0.95em" style="text-anchor: middle; visibility: inherit; font-family: &quot;Helvetica Neue&quot;, sans-serif; font-size: 12px; font-weight: 200;" fill="rgb(50, 49, 63)" stroke="none" stroke-width="1px">1.5k</text><text x="207.14285714285714" y="0" dx="0em" dy="0.95em" style="text-anchor: middle; visibility: inherit; font-family: &quot;Helvetica Neue&quot;, sans-serif; font-size: 12px; font-weight: 200;" fill="rgb(50, 49, 63)" stroke="none" stroke-width="1px">2k</text><text x="248.57142857142856" y="0" dx="0em" dy="0.95em" style="text-anchor: middle; visibility: inherit; font-family: &quot;Helvetica Neue&quot;, sans-serif; font-size: 12px; font-weight: 200;" fill="rgb(50, 49, 63)" stroke="none" stroke-width="1px">2.5k</text><text x="290" y="0" dx="0em" dy="0.95em" style="text-anchor: middle; visibility: hidden; font-family: &quot;Helvetica Neue&quot;, sans-serif; font-size: 12px; font-weight: 200;" fill="rgb(50, 49, 63)" stroke="none" stroke-width="1px">3k</text></g><line x1="0" y1="0" x2="290" y2="0" fill="rgb(0, 0, 0)" stroke="rgb(204, 204, 204)" stroke-width="1px"></line></g></g></g></g></svg>